<svg width="60" height="60" viewBox="0 0 60 60" fill="none" xmlns="http://www.w3.org/2000/svg">
<path d="M30 35.3437C27.0045 35.3437 24.5685 32.9167 24.5685 29.9287C24.5685 26.9437 27.0045 24.5137 30 24.5137C32.9955 24.5137 35.4315 26.9437 35.4315 29.9287C35.43 32.9167 32.994 35.3437 30 35.3437ZM30 26.7982C28.266 26.7982 26.8545 28.2022 26.8545 29.9287C26.8545 31.6552 28.2645 33.0592 30 33.0592C31.7355 33.0592 33.1455 31.6552 33.1455 29.9287C33.1455 28.2022 31.734 26.7982 30 26.7982Z" fill="white" stroke="white"/>
<path d="M51.774 35.148L46.9785 32.3775C47.0865 31.5915 47.142 30.795 47.142 30C47.142 29.205 47.0865 28.4055 46.9785 27.6195L51.774 24.852C52.2855 24.5565 52.461 23.8995 52.1655 23.3865L46.809 14.1075C46.665 13.86 46.431 13.6815 46.1565 13.608C45.882 13.533 45.5895 13.5765 45.345 13.7145L40.548 16.485C39.288 15.498 37.908 14.7 36.429 14.103V8.571C36.4275 7.977 35.9505 7.5 35.355 7.5H24.642C24.0495 7.5 23.571 7.977 23.571 8.571V14.1045C22.092 14.7 20.7105 15.4995 19.452 16.4865L14.6565 13.719C14.145 13.4205 13.4895 13.596 13.1925 14.109L7.83601 23.388C7.69351 23.6355 7.65601 23.925 7.72801 24.2025C7.80151 24.477 7.98151 24.711 8.22751 24.8535L13.023 27.621C12.912 28.407 12.8565 29.205 12.8565 30C12.8565 30.795 12.9135 31.5915 13.023 32.3775L8.22751 35.145C7.71601 35.4405 7.54051 36.0975 7.83601 36.6105L13.1925 45.8895C13.335 46.137 13.569 46.3155 13.845 46.392C14.118 46.464 14.4105 46.4235 14.6565 46.2825L19.4535 43.515C20.712 44.499 22.0935 45.297 23.5725 45.897V51.4305C23.5725 52.0215 24.0525 52.5015 24.6435 52.5015H35.3565C35.9505 52.5015 36.429 52.0215 36.429 51.4305V45.897C37.908 45.2985 39.288 44.499 40.551 43.515L45.345 46.2825C45.5895 46.425 45.882 46.464 46.1565 46.392C46.431 46.3155 46.665 46.137 46.809 45.8895L52.1655 36.6105C52.461 36.096 52.284 35.4405 51.774 35.148ZM45.4875 43.89L40.9785 41.2875C40.584 41.0595 40.0905 41.106 39.7455 41.4015C38.3385 42.6075 36.741 43.53 34.9995 44.1465C34.5735 44.298 34.284 44.6985 34.284 45.1575V50.358H25.713V45.1575C25.713 44.6985 25.428 44.298 24.9975 44.1465C23.2575 43.53 21.66 42.6075 20.2515 41.4015C19.9065 41.106 19.4115 41.058 19.0185 41.2875L14.514 43.89L10.2285 36.465L14.733 33.8655C15.126 33.6405 15.3345 33.1905 15.2505 32.7435C15.084 31.842 15 30.918 15 30C15 29.079 15.0855 28.158 15.2505 27.255C15.3345 26.811 15.126 26.358 14.733 26.133L10.2285 23.5335L14.514 16.1085L19.02 18.711C19.413 18.939 19.9065 18.8925 20.253 18.6C21.6615 17.394 23.2575 16.4715 24.999 15.855C25.4295 15.7035 25.7145 15.3 25.7145 14.844V9.6435H34.2855V14.844C34.2855 15.3 34.5735 15.7035 35.001 15.855C36.7425 16.4715 38.34 17.394 39.747 18.6C40.092 18.8925 40.587 18.9405 40.98 18.711L45.4875 16.1085L49.773 23.5335L45.267 26.133C44.874 26.358 44.667 26.811 44.7495 27.255C44.9145 28.158 45 29.079 45 30C45 30.918 44.9145 31.842 44.7495 32.742C44.6655 33.189 44.874 33.639 45.267 33.864L49.773 36.4635L45.4875 43.89Z" fill="white" stroke="white"/>
</svg>
