<svg width="44" height="50" viewBox="0 0 44 50" fill="none" xmlns="http://www.w3.org/2000/svg">
<path d="M1.33334 43.6584V9.52503C1.33334 6.5381 1.33334 5.04461 1.89648 3.90375C2.39181 2.90021 3.18221 2.08431 4.1544 1.57301C5.2596 0.991699 6.70642 0.991699 9.60001 0.991699H34.4C37.2936 0.991699 38.7405 0.991699 39.8457 1.57301C40.8178 2.08431 41.6083 2.90021 42.1035 3.90375C42.6667 5.04461 42.6667 6.5381 42.6667 9.52503V38.325H6.50001C3.64654 38.325 1.33334 40.7128 1.33334 43.6584ZM1.33334 43.6584C1.33334 46.604 3.64654 48.9917 6.50001 48.9917H42.6667M14.25 11.6584H29.75M14.25 22.325H29.75M40.0833 38.325V48.9917" stroke="white" stroke-width="2" stroke-linecap="round" stroke-linejoin="round"/>
</svg>
