<svg width="110" height="80" viewBox="0 0 110 80" fill="none" xmlns="http://www.w3.org/2000/svg">
<path d="M104.941 12.5762H103.112V7.3022C103.112 6.67685 102.75 6.10769 102.184 5.84141C87.2009 -1.20935 70.0487 -1.30966 55 5.52949C39.9513 -1.30966 22.7991 -1.20914 7.8156 5.84141C7.24967 6.10769 6.88845 6.67685 6.88845 7.3022V12.5762H5.05871C2.26932 12.5762 0 14.8455 0 17.6349V74.4646C0 77.254 2.26932 79.5233 5.05871 79.5233H104.941C107.731 79.5233 110 77.254 110 74.4646V17.6349C110 14.8455 107.731 12.5762 104.941 12.5762ZM56.6145 36.5732C56.6145 36.5712 56.6145 36.5691 56.6145 36.5671V8.33762C70.4209 2.15803 86.0758 2.15803 99.8826 8.33762V14.1844C99.8826 14.1866 99.8824 14.1887 99.8824 14.1906C99.8824 14.1926 99.8826 14.195 99.8826 14.1969V66.8156C92.9431 63.918 85.5953 62.4688 78.2485 62.4688C70.9018 62.4688 63.5537 63.918 56.6145 66.8156V36.5732ZM46.2818 5.74906C48.69 6.43877 51.0643 7.29854 53.3855 8.33762V33.5616L50.7292 31.7906C50.1867 31.429 49.4804 31.429 48.9382 31.7906L46.2818 33.5616V5.74906ZM10.1174 14.195C10.1174 14.1934 10.1176 14.1922 10.1176 14.1906C10.1176 14.1891 10.1174 14.1881 10.1174 14.1866V8.33762C20.5713 3.65863 32.0843 2.5257 43.0528 4.93214V12.0049C37.2909 10.8198 31.4118 10.546 25.5458 11.1976C24.6596 11.296 24.0211 12.0942 24.1195 12.9804C24.2181 13.8665 25.0154 14.5056 25.9023 14.4068C31.6516 13.7681 37.4144 14.0705 43.0526 15.3033V25.7837C39.6273 25.0809 36.134 24.693 32.6388 24.6379C31.7465 24.6211 31.0131 25.3351 30.9989 26.2265C30.9849 27.1181 31.6961 27.8522 32.5876 27.8664C36.103 27.9219 39.6168 28.3322 43.0524 29.082V32.6683C33.7123 30.7505 24.0252 31.2381 14.907 34.103C14.0563 34.3702 13.5836 35.2764 13.8507 36.1271C14.0675 36.8169 14.7041 37.2581 15.3905 37.2581C15.5509 37.2581 15.7139 37.234 15.8749 37.1834C24.6809 34.4169 34.0492 34.0033 43.0524 35.9698V36.5779C43.0524 37.1733 43.38 37.7205 43.9051 38.0012C44.4299 38.2824 45.0671 38.2514 45.5624 37.9212L49.8332 35.0739L53.3851 37.4418V66.8154C46.4456 63.9177 39.0978 62.4686 31.751 62.4686C24.4043 62.4686 17.0562 63.9177 10.117 66.8154V14.195H10.1174ZM48.2192 76.2944H5.05871C4.04977 76.2944 3.22896 75.4736 3.22896 74.4646V17.6349C3.22896 16.6259 4.04977 15.8051 5.05871 15.8051H6.88845V69.2983V71.0204C6.88845 71.912 7.61131 72.6349 8.50294 72.6349H48.2192V76.2944ZM12.3325 69.4059C24.8391 64.469 38.6636 64.4688 51.1705 69.4059H12.3325ZM58.5519 76.2944H51.4481V72.6349H58.5519V76.2944ZM97.6675 69.4059H58.8296C71.3362 64.469 85.1607 64.469 97.6675 69.4059ZM106.771 74.4646C106.771 75.4736 105.95 76.2944 104.941 76.2944H61.7808V72.6349H101.497C102.389 72.6349 103.112 71.912 103.112 71.0204V69.2983V15.8051H104.941C105.95 15.8051 106.771 16.6259 106.771 17.6349V74.4646Z" fill="black"/>
<path d="M66.7233 53.3999C64.9362 53.7744 63.1467 54.2418 61.4046 54.7892C60.5538 55.0565 60.0811 55.9628 60.3482 56.8133C60.565 57.503 61.2016 57.9443 61.888 57.9443C62.0484 57.9443 62.2114 57.9202 62.3724 57.8696C64.0144 57.3538 65.7012 56.9132 67.3855 56.5601C68.2581 56.3772 68.8174 55.5215 68.6344 54.6488C68.4517 53.7761 67.5953 53.2171 66.7233 53.3999Z" fill="black"/>
<path d="M94.609 57.944C95.2955 57.944 95.9323 57.5025 96.1488 56.813C96.416 55.9622 95.943 55.056 95.0925 54.7888C88.1883 52.6198 81.0295 51.8092 73.8149 52.3805C72.9261 52.4506 72.2627 53.2282 72.3329 54.1172C72.403 55.0063 73.1799 55.6699 74.0696 55.5993C80.8698 55.0614 87.6173 55.8249 94.1247 57.8695C94.2857 57.9201 94.4487 57.944 94.609 57.944Z" fill="black"/>
<path d="M61.888 51.0359C62.0484 51.0359 62.2114 51.0118 62.3724 50.9612C72.7587 47.698 83.7387 47.698 94.1247 50.9612C94.9755 51.2281 95.8817 50.7554 96.1489 49.9049C96.416 49.0542 95.9431 48.1479 95.0925 47.8808C84.073 44.4187 72.4239 44.4187 61.4046 47.8808C60.5538 48.1479 60.0809 49.0542 60.3483 49.9049C60.565 50.5944 61.2016 51.0359 61.888 51.0359Z" fill="black"/>
<path d="M61.888 44.1673C62.0484 44.1673 62.2114 44.1432 62.3724 44.0926C68.3311 42.2205 74.5152 41.4208 80.7557 41.7168C81.6484 41.7581 82.4027 41.0712 82.4449 40.1804C82.4871 39.2896 81.7993 38.5336 80.9086 38.4912C74.2886 38.1778 67.7267 39.0257 61.4046 41.012C60.5538 41.2793 60.0809 42.1856 60.3483 43.0361C60.565 43.7262 61.2016 44.1673 61.888 44.1673Z" fill="black"/>
<path d="M95.0925 41.012C92.7763 40.2844 90.3898 39.7019 87.9991 39.2806C87.1208 39.1259 86.2839 39.7124 86.1289 40.5905C85.9741 41.4686 86.5605 42.306 87.4388 42.4607C89.692 42.8577 91.9415 43.4068 94.1245 44.0926C94.2857 44.1432 94.4484 44.1673 94.6088 44.1673C95.2953 44.1673 95.932 43.7258 96.1486 43.0363C96.4159 42.1854 95.9432 41.2791 95.0925 41.012Z" fill="black"/>
<path d="M61.888 37.2585C62.0484 37.2585 62.2114 37.2344 62.3724 37.1838C72.7587 33.9206 83.7387 33.9206 94.1247 37.1838C94.9755 37.4508 95.8817 36.978 96.1489 36.1275C96.416 35.2768 95.9431 34.3705 95.0925 34.1034C84.073 30.6413 72.4239 30.6413 61.4046 34.1034C60.5538 34.3705 60.0809 35.2768 60.3483 36.1275C60.565 36.817 61.2016 37.2585 61.888 37.2585Z" fill="black"/>
<path d="M72.0442 24.9749C68.4424 25.3748 64.8626 26.1287 61.4046 27.2151C60.5538 27.4823 60.0811 28.3885 60.3482 29.2393C60.565 29.929 61.2016 30.3703 61.888 30.3703C62.0484 30.3703 62.2114 30.3462 62.3724 30.2956C65.6317 29.2716 69.0057 28.5612 72.4005 28.184C73.2867 28.0857 73.9252 27.2875 73.8268 26.4012C73.7284 25.515 72.9294 24.8763 72.0442 24.9749Z" fill="black"/>
<path d="M79.085 27.8663C84.1922 27.947 89.2522 28.764 94.1247 30.2951C94.2857 30.3455 94.4487 30.3698 94.609 30.3698C95.2955 30.3698 95.932 29.9283 96.1488 29.2388C96.416 28.3881 95.943 27.4818 95.0925 27.2147C89.9229 25.5905 84.5543 24.7237 79.1361 24.638C78.2481 24.6212 77.5104 25.3352 77.4962 26.2266C77.482 27.118 78.1934 27.8523 79.085 27.8663Z" fill="black"/>
<path d="M84.0975 21.3152C84.9835 21.4142 85.7819 20.7751 85.8803 19.8888C85.9789 19.0026 85.3402 18.2044 84.454 18.106C76.6502 17.2391 68.8951 17.9928 61.4046 20.346C60.5538 20.6134 60.0811 21.5197 60.3482 22.3702C60.565 23.0599 61.2016 23.5012 61.888 23.5012C62.0484 23.5012 62.2114 23.4771 62.3724 23.4265C69.4324 21.2084 76.7417 20.4982 84.0975 21.3152Z" fill="black"/>
<path d="M95.0925 20.3463C93.9262 19.98 92.7332 19.6476 91.5467 19.3587C90.6792 19.1478 89.8069 19.679 89.596 20.5453C89.385 21.4115 89.9163 22.285 90.7825 22.496C91.901 22.7683 93.0253 23.0815 94.1247 23.4268C94.2857 23.4774 94.4487 23.5015 94.609 23.5015C95.2955 23.5015 95.9323 23.06 96.1488 22.3705C96.416 21.5197 95.9432 20.6135 95.0925 20.3463Z" fill="black"/>
<path d="M61.888 16.5933C62.0484 16.5933 62.2114 16.5692 62.3724 16.5186C63.4709 16.1733 64.595 15.8603 65.7135 15.5878C66.5797 15.3768 67.111 14.5035 66.9 13.6371C66.6891 12.7706 65.8155 12.2396 64.9493 12.4505C63.7626 12.7394 62.57 13.0718 61.4043 13.4379C60.5538 13.7053 60.0809 14.6116 60.348 15.4621C60.565 16.1518 61.2016 16.5933 61.888 16.5933Z" fill="black"/>
<path d="M72.3996 14.407C79.7556 13.5898 87.0647 14.3002 94.1247 16.5185C94.2857 16.5689 94.4487 16.5932 94.6091 16.5932C95.2955 16.5932 95.9321 16.1517 96.1488 15.4622C96.416 14.6115 95.943 13.7052 95.0925 13.4381C87.602 11.0846 79.8467 10.3307 72.0429 11.198C71.1567 11.2964 70.5182 12.0946 70.6166 12.9808C70.7152 13.8669 71.5129 14.5058 72.3996 14.407Z" fill="black"/>
<path d="M20.2262 53.3999C18.4391 53.7744 16.6496 54.2418 14.9075 54.7892C14.0568 55.0565 13.584 55.9628 13.8512 56.8133C14.0679 57.503 14.7045 57.9443 15.391 57.9443C15.5513 57.9443 15.7143 57.9202 15.8753 57.8696C17.5173 57.3538 19.2042 56.9132 20.8884 56.5601C21.7611 56.3772 22.3203 55.5215 22.1373 54.6488C21.9544 53.7761 21.0983 53.2171 20.2262 53.3999Z" fill="black"/>
<path d="M48.112 57.944C48.7984 57.944 49.4352 57.5025 49.6517 56.813C49.9189 55.9622 49.446 55.056 48.5954 54.7888C41.6913 52.6198 34.532 51.8092 27.3179 52.3805C26.429 52.4506 25.7656 53.2282 25.8358 54.1172C25.906 55.0063 26.6826 55.6699 27.5725 55.5993C34.3729 55.0614 41.1202 55.8249 47.6276 57.8695C47.7886 57.9201 47.9516 57.944 48.112 57.944Z" fill="black"/>
<path d="M15.9145 51.2507C16.0749 51.2507 16.2378 51.2266 16.3988 51.176C26.7851 47.9128 37.7651 47.9128 48.1511 51.176C49.0019 51.443 49.9081 50.9702 50.1753 50.1197C50.4424 49.269 49.9695 48.3627 49.119 48.0956C38.0994 44.6335 26.4502 44.6335 15.431 48.0956C14.5803 48.3627 14.1073 49.269 14.3747 50.1197C14.5915 50.8092 15.228 51.2507 15.9145 51.2507Z" fill="black"/>
<path d="M15.391 44.1673C15.5514 44.1673 15.7143 44.1432 15.8753 44.0926C21.8341 42.2205 28.0186 41.4208 34.2587 41.7168C35.1537 41.7581 35.9054 41.0712 35.9479 40.1804C35.99 39.2896 35.3023 38.5336 34.4115 38.4912C27.7908 38.1778 21.2296 39.0257 14.9075 41.012C14.0568 41.2793 13.5838 42.1856 13.8512 43.0361C14.068 43.7262 14.7045 44.1673 15.391 44.1673Z" fill="black"/>
<path d="M40.9419 42.4605C43.1951 42.8575 45.4446 43.4066 47.6276 44.0924C47.7888 44.143 47.9516 44.1671 48.1119 44.1671C48.7984 44.1671 49.4352 43.7256 49.6517 43.0361C49.9189 42.1854 49.4459 41.2791 48.5954 41.012C46.2792 40.2844 43.8928 39.7019 41.502 39.2806C40.624 39.1259 39.7866 39.7124 39.6318 40.5905C39.4773 41.4684 40.0637 42.3057 40.9419 42.4605Z" fill="black"/>
<path d="M25.5471 24.9749C21.9453 25.3748 18.3655 26.1287 14.9075 27.2151C14.0568 27.4823 13.584 28.3885 13.8512 29.2393C14.0679 29.929 14.7045 30.3703 15.391 30.3703C15.5513 30.3703 15.7143 30.3462 15.8753 30.2956C19.1346 29.2716 22.5087 28.5612 25.9034 28.184C26.7896 28.0857 27.4281 27.2875 27.3297 26.4012C27.2316 25.5152 26.4319 24.8763 25.5471 24.9749Z" fill="black"/>
<path d="M13.8512 22.3704C14.0679 23.0601 14.7045 23.5014 15.391 23.5014C15.5513 23.5014 15.7143 23.4773 15.8753 23.4267C22.9353 21.2084 30.2446 20.4982 37.6004 21.3152C38.4864 21.4142 39.2849 20.7751 39.3832 19.8888C39.4818 19.0026 38.8431 18.2044 37.9569 18.106C30.1529 17.2391 22.398 17.9928 14.9075 20.346C14.0568 20.6136 13.584 21.5199 13.8512 22.3704Z" fill="black"/>
<path d="M15.391 16.5933C15.5513 16.5933 15.7143 16.5692 15.8753 16.5186C16.9738 16.1733 18.0979 15.8603 19.2164 15.5878C20.0827 15.3768 20.6139 14.5035 20.403 13.6371C20.192 12.7706 19.3185 12.2396 18.4522 12.4505C17.2655 12.7394 16.0729 13.0718 14.9073 13.4379C14.0568 13.7053 13.5838 14.6116 13.851 15.4621C14.068 16.1518 14.7045 16.5933 15.391 16.5933Z" fill="black"/>
</svg>
