<svg width="56" height="56" viewBox="0 0 56 56" fill="none" xmlns="http://www.w3.org/2000/svg">
<path d="M27 29.0083L38.625 17.3833" stroke="white" stroke-width="2" stroke-miterlimit="10" stroke-linecap="round" stroke-linejoin="round"/>
<path d="M54.125 9.6333H46.375V1.8833L38.625 9.6333V17.3833H46.375L54.125 9.6333Z" stroke="white" stroke-width="2" stroke-miterlimit="10" stroke-linecap="round" stroke-linejoin="round"/>
<path d="M27 40.6333C33.4203 40.6333 38.625 35.4286 38.625 29.0083C38.625 22.588 33.4203 17.3833 27 17.3833C20.5797 17.3833 15.375 22.588 15.375 29.0083C15.375 35.4286 20.5797 40.6333 27 40.6333Z" stroke="white" stroke-width="2" stroke-miterlimit="10" stroke-linecap="round" stroke-linejoin="round"/>
<path d="M48.3125 15.4458C50.8312 19.3208 52.1875 23.9708 52.1875 29.0083C52.1875 42.9583 40.95 54.1958 27 54.1958C13.05 54.1958 1.8125 42.9583 1.8125 29.0083C1.8125 15.0583 13.05 3.8208 27 3.8208C32.0375 3.8208 36.6875 5.17705 40.5625 7.6958" stroke="white" stroke-width="2" stroke-miterlimit="10" stroke-linecap="round" stroke-linejoin="round"/>
</svg>
