<svg width="54" height="58" viewBox="0 0 54 58" fill="none" xmlns="http://www.w3.org/2000/svg">
<path fill-rule="evenodd" clip-rule="evenodd" d="M6.02409 26.2283C3.68766 26.9127 2.69645 29.3152 2.72949 32.0434C2.74365 33.2754 2.96549 34.5686 3.3667 35.8195C3.7679 37.0656 4.34375 38.2503 5.07536 39.2698C6.73682 41.5968 9.21012 43.0175 12.1082 42.0216C12.3254 41.9461 12.5566 41.965 12.7502 42.0547C12.7974 42.0358 12.8446 42.0216 12.8965 42.0027C13.6187 41.7667 14.2889 41.5638 14.8978 41.3797C15.5775 41.1767 16.2194 40.9926 16.8236 40.8322C17.2909 40.7047 17.7723 40.9832 17.8997 41.4505C17.9092 41.4835 17.9139 41.5166 17.9186 41.5496C18.0036 41.9319 18.0933 42.3143 18.1782 42.6966C18.8438 45.6608 19.4857 48.5211 20.3447 50.8434C20.3589 50.8859 20.4722 51.2021 20.5902 51.5184C21.1188 52.9816 21.6899 54.5439 22.4216 55.4643C23.0682 56.2714 23.9603 56.5122 25.348 55.4266C25.6076 55.1811 25.8719 54.9546 26.141 54.7233C26.967 54.0105 27.7977 53.3025 28.0998 52.2358C27.911 51.9762 27.5475 51.8204 27.1841 51.6647C25.971 51.1502 24.758 50.631 25.0837 48.0822C25.0978 47.95 25.1167 47.832 25.1309 47.714C25.2253 46.9682 25.2772 46.5859 25.23 46.4207C25.2064 46.331 25.0223 46.1658 24.6589 45.8307L24.5267 45.708C23.8092 45.0519 23.5544 44.1126 23.5638 43.0978C23.5732 41.9036 23.965 40.5914 24.3568 39.6474C24.4795 39.3501 24.7485 39.1565 25.0459 39.1141C34.1178 37.8585 39.6497 39.435 44.0488 40.6906C44.2376 40.7425 44.4264 40.7991 44.6105 40.851C40.6834 36.8012 37.4644 30.6652 35.2601 24.3781C32.9331 17.7369 31.7389 10.874 32.0505 6.06898C28.4538 11.3838 22.1431 19.8232 7.10026 25.3551C7.0861 25.3598 7.07194 25.3645 7.05778 25.3693L6.93978 25.4117C6.78402 25.4684 6.76042 25.4542 6.73682 25.4731C6.70378 25.5014 6.73682 25.5014 6.67546 25.6006C6.66602 25.6147 6.69434 25.5675 6.51497 25.8507C6.40169 26.0395 6.22233 26.167 6.02409 26.2283ZM43.4919 24.9397C43.4919 27.1157 41.3584 31.0286 40.0226 31.1041C42.2977 35.5599 45.092 39.4161 48.2402 41.7195C48.4243 41.7431 48.5942 41.7573 48.7547 41.7478C49.0615 41.7384 49.3636 41.6534 49.694 41.4458C50.4115 40.7236 50.8646 39.5908 51.0959 38.1606C51.8039 33.7521 50.3595 26.8466 47.9382 20.2008C45.512 13.5408 42.123 7.19235 38.9559 3.90719C37.7948 2.70358 36.6997 1.94837 35.751 1.79261C35.5103 1.75485 35.3734 1.74541 35.3073 1.76901C35.2271 1.79733 35.1043 1.91061 34.9108 2.10413C34.8164 2.19853 34.722 2.30237 34.6229 2.41566C34.6134 2.44398 34.5993 2.4723 34.5898 2.4959C33.1077 5.55449 33.5892 12.1578 35.5103 19.2379C36.9593 18.5582 43.4919 19.3323 43.4919 24.9397ZM48.1506 43.4707C47.9618 43.5084 47.7588 43.4801 47.5794 43.3857C47.4142 43.3574 47.249 43.3196 47.0744 43.2866C45.9321 43.0506 44.7946 42.7249 43.5674 42.3756C39.409 41.1909 34.1934 39.7041 25.7917 40.7802C25.5321 41.4977 25.3149 42.352 25.3102 43.1119C25.3055 43.6595 25.4093 44.1409 25.702 44.41L25.8341 44.5327C26.4572 45.0991 26.764 45.3776 26.9198 45.9676C27.0519 46.4585 26.9858 46.9541 26.8584 47.9358C26.8442 48.0491 26.8301 48.1718 26.8112 48.304C26.6554 49.5407 27.2596 49.8003 27.8638 50.0551C28.6473 50.3903 29.4355 50.7254 29.8226 51.7968C29.8887 51.9526 29.9123 52.132 29.8792 52.3113C29.5252 54.1238 28.4019 55.0914 27.2738 56.059C27.0236 56.2762 26.7734 56.4886 26.5374 56.7104C26.5186 56.7293 26.4997 56.7435 26.4808 56.7623C24.0264 58.7259 22.3413 58.1736 21.0527 56.5641C20.1323 55.4124 19.514 53.7132 18.9382 52.1225C18.891 51.9856 18.839 51.8535 18.6927 51.4523C17.8006 49.045 17.1445 46.1139 16.4648 43.0836L16.394 42.7768C16.0542 42.8712 15.7191 42.9703 15.3887 43.0695C14.7043 43.2724 14.0482 43.4754 13.4204 43.6783C13.3402 43.702 13.2882 43.7256 13.2458 43.7444C12.8351 43.9096 12.651 43.9804 12.2829 43.8105C8.67204 44.8631 5.65592 43.1214 3.63574 40.2941C2.81445 39.1188 2.15365 37.7641 1.70052 36.3528C1.2474 34.9415 0.997233 33.4689 0.978353 32.0576C0.940592 28.7063 2.21501 25.7138 5.19808 24.6565C5.3444 24.4158 5.42936 24.2837 5.61344 24.1279C5.82113 23.9533 5.99105 23.8919 6.34505 23.7645L6.45833 23.722C6.47249 23.7173 6.48665 23.7125 6.50081 23.7078C21.9401 18.0249 27.8685 9.17477 31.2386 4.13847C32.1826 2.7319 32.9331 1.60853 33.6742 0.867479C34.0376 0.504035 34.3161 0.272752 34.6937 0.131151C35.0854 -0.0151707 35.4678 -0.0246108 36.0247 0.0650702C37.3747 0.282193 38.7954 1.22148 40.2161 2.69414C43.5485 6.14922 47.0838 12.7384 49.5855 19.6108C52.0918 26.5021 53.5833 33.7285 52.8234 38.4391C52.5308 40.2705 51.8983 41.7573 50.8599 42.7579C50.8268 42.791 50.7843 42.824 50.7419 42.8523C50.0811 43.3007 49.458 43.4754 48.8161 43.5037C48.5942 43.5084 48.3724 43.4943 48.1506 43.4707Z" fill="white" stroke="white"/>
</svg>
