<svg width="100" height="100" viewBox="0 0 100 100" fill="none" xmlns="http://www.w3.org/2000/svg">
<path d="M50 95.1142C74.915 95.1142 95.1148 74.9144 95.1148 49.9994C95.1148 25.0844 74.915 4.88672 50 4.88672C25.085 4.88672 4.88525 25.0844 4.88525 49.9994C4.88525 74.9144 25.085 95.1142 50 95.1142Z" fill="white" stroke="black" stroke-width="0.60625"/>
<path d="M57.6917 78.8208V39.9209H35.9388V44.17H42.3063V78.8208H35.9388V83.0679H64.0592V78.8208H57.6917Z" fill="black"/>
<path d="M49.998 35.5216C55.2743 35.5216 59.5502 31.2457 59.5502 25.9693C59.5502 20.693 55.2743 16.415 49.998 16.415C44.7196 16.415 40.4437 20.693 40.4437 25.9693C40.4437 31.2457 44.7196 35.5216 49.998 35.5216Z" fill="black"/>
</svg>
