<svg width="58" height="58" viewBox="0 0 58 58" fill="none" xmlns="http://www.w3.org/2000/svg">
<path d="M42.6425 38.6169V33.9304C42.6425 33.3644 42.4176 32.8216 42.0174 32.4213C41.6171 32.0211 41.0743 31.7962 40.5082 31.7962H38.0988C37.6737 31.7954 37.2585 31.6682 36.9059 31.4308C36.5533 31.1933 36.2792 30.8564 36.1186 30.4629L36.1073 30.4357C35.9426 30.0436 35.8977 29.6116 35.9784 29.194C36.059 28.7765 36.2615 28.3922 36.5604 28.0896L38.2596 26.3904C38.4579 26.1923 38.6151 25.9571 38.7224 25.6982C38.8297 25.4393 38.885 25.1618 38.885 24.8815C38.885 24.6013 38.8297 24.3237 38.7224 24.0648C38.6151 23.8059 38.4579 23.5707 38.2596 23.3726L34.9541 20.0512C34.756 19.853 34.5207 19.6957 34.2618 19.5884C34.0029 19.4811 33.7254 19.4259 33.4452 19.4259C33.1649 19.4259 32.8874 19.4811 32.6285 19.5884C32.3696 19.6957 32.1343 19.853 31.9363 20.0512L30.237 21.7504C29.9345 22.0493 29.5502 22.2518 29.1327 22.3324C28.7151 22.4131 28.2831 22.3682 27.891 22.2036L27.8638 22.1922C27.4706 22.0317 27.1339 21.7581 26.8966 21.4059C26.6592 21.0538 26.5318 20.639 26.5305 20.2143V17.8139C26.5305 17.2479 26.3056 16.705 25.9054 16.3048C25.5051 15.9045 24.9623 15.6797 24.3963 15.6797H19.7053C19.1392 15.6797 18.5964 15.9045 18.1962 16.3048C17.7959 16.705 17.5711 17.2479 17.5711 17.8139V20.2234C17.5702 20.6485 17.443 21.0637 17.2056 21.4163C16.9682 21.7689 16.6313 22.0429 16.2377 22.2036L16.2105 22.2149C15.8185 22.3796 15.3864 22.4244 14.9689 22.3438C14.5513 22.2631 14.167 22.0606 13.8645 21.7618L12.1653 20.0625C11.9672 19.8643 11.732 19.707 11.4731 19.5997C11.2141 19.4924 10.9366 19.4372 10.6564 19.4372C10.3761 19.4372 10.0986 19.4924 9.83969 19.5997C9.58078 19.707 9.34556 19.8643 9.14746 20.0625L5.82946 23.3681C5.6312 23.5662 5.47393 23.8014 5.36663 24.0603C5.25933 24.3192 5.2041 24.5967 5.2041 24.877C5.2041 25.1573 5.25933 25.4348 5.36663 25.6937C5.47393 25.9526 5.6312 26.1878 5.82946 26.3859L7.52867 28.0851C7.82752 28.3877 8.03004 28.772 8.11069 29.1895C8.19133 29.607 8.14648 30.0391 7.9818 30.4312L7.97047 30.4584C7.80998 30.8516 7.5363 31.1882 7.18415 31.4256C6.832 31.663 6.41727 31.7904 5.99258 31.7917H3.58875C3.3081 31.7917 3.03021 31.847 2.77097 31.9546C2.51174 32.0621 2.27627 32.2197 2.07803 32.4184C1.87979 32.617 1.72268 32.8529 1.61569 33.1123C1.5087 33.3718 1.45394 33.6498 1.45453 33.9304V38.6169C1.45453 39.1829 1.67939 39.7258 2.07963 40.126C2.47988 40.5262 3.02272 40.7511 3.58875 40.7511H5.99824C6.42293 40.7524 6.83766 40.8798 7.18981 41.1172C7.54196 41.3546 7.81564 41.6912 7.97614 42.0844L7.98746 42.1116C8.15215 42.5037 8.197 42.9357 8.11635 43.3533C8.03571 43.7708 7.83318 44.1551 7.53434 44.4577L5.83512 46.1569C5.63687 46.355 5.4796 46.5902 5.3723 46.8491C5.265 47.108 5.20977 47.3855 5.20977 47.6658C5.20977 47.946 5.265 48.2236 5.3723 48.4825C5.4796 48.7414 5.63687 48.9766 5.83512 49.1747L9.1486 52.4882C9.34669 52.6864 9.58192 52.8437 9.84082 52.951C10.0997 53.0583 10.3772 53.1135 10.6575 53.1135C10.9378 53.1135 11.2153 53.0583 11.4742 52.951C11.7331 52.8437 11.9683 52.6864 12.1664 52.4882L13.8656 50.7889C14.1682 50.4901 14.5525 50.2876 14.97 50.2069C15.3875 50.1263 15.8196 50.1711 16.2117 50.3358L16.2389 50.3472C16.6321 50.5076 16.9687 50.7813 17.2061 51.1335C17.4435 51.4856 17.5709 51.9004 17.5722 52.325V54.7345C17.5725 55.3002 17.7973 55.8426 18.1973 56.2425C18.5973 56.6425 19.1396 56.8673 19.7053 56.8676H24.3917C24.9578 56.8676 25.5006 56.6428 25.9008 56.2425C26.3011 55.8423 26.5259 55.2994 26.5259 54.7334V52.3239C26.5272 51.8992 26.6546 51.4845 26.892 51.1323C27.1294 50.7802 27.4661 50.5065 27.8593 50.346L27.8865 50.3347C28.2785 50.17 28.7106 50.1252 29.1281 50.2058C29.5457 50.2864 29.93 50.489 30.2325 50.7878L31.9317 52.487C32.1298 52.6853 32.365 52.8426 32.6239 52.9499C32.8829 53.0572 33.1604 53.1124 33.4406 53.1124C33.7209 53.1124 33.9984 53.0572 34.2573 52.9499C34.5162 52.8426 34.7514 52.6853 34.9495 52.487L38.2709 49.1792C38.4692 48.9811 38.6265 48.7459 38.7338 48.487C38.8411 48.2281 38.8963 47.9506 38.8963 47.6703C38.8963 47.3901 38.8411 47.1125 38.7338 46.8536C38.6265 46.5947 38.4692 46.3595 38.2709 46.1614L36.5717 44.4622C36.2729 44.1596 36.0704 43.7754 35.9897 43.3578C35.9091 42.9403 35.9539 42.5082 36.1186 42.1161L36.1299 42.0889C36.2904 41.6958 36.5641 41.3591 36.9163 41.1217C37.2684 40.8843 37.6831 40.7569 38.1078 40.7556H40.5173C41.0826 40.7532 41.6238 40.5267 42.0222 40.1257C42.4206 39.7248 42.6437 39.1821 42.6425 38.6169Z" stroke="white" stroke-width="1.5" stroke-linecap="round" stroke-linejoin="round"/>
<path d="M22.0491 44.7457C26.7288 44.7457 30.5225 40.952 30.5225 36.2723C30.5225 31.5925 26.7288 27.7988 22.0491 27.7988C17.3693 27.7988 13.5756 31.5925 13.5756 36.2723C13.5756 40.952 17.3693 44.7457 22.0491 44.7457Z" stroke="white" stroke-width="1.5" stroke-linecap="round" stroke-linejoin="round"/>
<path d="M23.8219 15.6793V15.6328C23.8219 15.1822 24.0009 14.7499 24.3196 14.4313C24.6383 14.1126 25.0705 13.9336 25.5211 13.9336H27.4356C27.7732 13.9333 28.1031 13.8323 28.3832 13.6437C28.6632 13.455 28.8807 13.1872 29.0079 12.8744C29.0079 12.8676 29.0136 12.8597 29.017 12.8529C29.1479 12.5409 29.1831 12.1971 29.1182 11.8651C29.0532 11.5331 28.891 11.2279 28.6522 10.9883L27.2928 9.6357C26.9757 9.31724 26.7976 8.88608 26.7976 8.43662C26.7976 7.98716 26.9757 7.556 27.2928 7.23754L29.9255 4.60488C30.2439 4.28806 30.6748 4.1102 31.124 4.1102C31.5732 4.1102 32.0041 4.28806 32.3225 4.60488L33.6762 5.96426C33.9163 6.20197 34.2216 6.36308 34.5533 6.42721C34.885 6.49134 35.2283 6.45559 35.5397 6.32449L35.5612 6.31543C35.8742 6.18842 36.1423 5.971 36.3312 5.69094C36.52 5.41088 36.6211 5.08088 36.6215 4.74309V2.83203C36.6215 2.38137 36.8006 1.94917 37.1192 1.6305C37.4379 1.31184 37.8701 1.13281 38.3208 1.13281H42.0443C42.495 1.13281 42.9272 1.31184 43.2459 1.6305C43.5645 1.94917 43.7435 2.38137 43.7435 2.83203V4.74648C43.7439 5.08415 43.8448 5.41405 44.0335 5.6941C44.2221 5.97415 44.4899 6.19164 44.8027 6.31883L44.8231 6.32789C45.1347 6.45893 45.4782 6.49465 45.81 6.43053C46.1419 6.36641 46.4474 6.20533 46.6877 5.96766L48.0471 4.60828C48.3655 4.29146 48.7964 4.1136 49.2456 4.1136C49.6948 4.1136 50.1257 4.29146 50.4441 4.60828L53.0768 7.24094C53.394 7.5594 53.572 7.99056 53.572 8.44002C53.572 8.88948 53.394 9.32064 53.0768 9.6391L51.7151 10.9883C51.4771 11.2284 51.3159 11.5339 51.252 11.866C51.188 12.198 51.2243 12.5415 51.356 12.8529L51.364 12.8744C51.4911 13.187 51.7084 13.4547 51.9882 13.6433C52.2681 13.832 52.5977 13.933 52.9352 13.9336H54.8496C55.3003 13.9336 55.7325 14.1126 56.0512 14.4313C56.3698 14.7499 56.5489 15.1822 56.5489 15.6328V19.3552C56.5489 19.8059 56.3698 20.2381 56.0512 20.5568C55.7325 20.8754 55.3003 21.0545 54.8496 21.0545H52.9352C52.5976 21.0551 52.2678 21.1563 51.988 21.3452C51.7082 21.534 51.4909 21.8019 51.364 22.1148L51.356 22.1352C51.2235 22.4464 51.1869 22.7901 51.2508 23.1223C51.3148 23.4545 51.4765 23.76 51.7151 23.9998L53.0689 25.3535C53.3857 25.6719 53.5635 26.1028 53.5635 26.552C53.5635 27.0012 53.3857 27.4321 53.0689 27.7505L50.4362 30.3832C50.1178 30.7 49.6869 30.8778 49.2377 30.8778C48.7885 30.8778 48.3576 30.7 48.0392 30.3832L46.6798 29.0295C46.4402 28.7906 46.1347 28.6287 45.8025 28.5645C45.4703 28.5004 45.1265 28.5368 44.8152 28.6692L44.7948 28.6771C44.4836 28.805 44.2173 29.0223 44.0298 29.3017C43.8422 29.581 43.7418 29.9097 43.7413 30.2461V32.1605C43.7399 32.5061 43.6333 32.843 43.4355 33.1263C43.2378 33.4097 42.9584 33.626 42.6345 33.7465" stroke="white" stroke-width="1.5" stroke-linecap="round" stroke-linejoin="round"/>
<path d="M40.1831 23.0098C43.2294 23.0098 45.6988 20.5404 45.6988 17.4942C45.6988 14.448 43.2294 11.9785 40.1831 11.9785C37.1369 11.9785 34.6675 14.448 34.6675 17.4942C34.6675 20.5404 37.1369 23.0098 40.1831 23.0098Z" stroke="white" stroke-width="1.5" stroke-linecap="round" stroke-linejoin="round"/>
</svg>
