<svg width="18" height="50" viewBox="0 0 18 50" fill="none" xmlns="http://www.w3.org/2000/svg">
<path d="M15.9485 2.50874V47.5087C15.9485 47.7574 15.8459 47.9958 15.6632 48.1717C15.4804 48.3475 15.2326 48.4462 14.9742 48.4462C14.7159 48.4462 14.468 48.3475 14.2853 48.1717C14.1026 47.9958 14 47.7574 14 47.5087V4.26003L3.82324 10.7856C3.71678 10.8539 3.59735 10.9015 3.47179 10.9254C3.34623 10.9494 3.21699 10.9493 3.09147 10.9251C2.96594 10.901 2.84659 10.8533 2.74024 10.7847C2.63389 10.7162 2.54261 10.6282 2.47164 10.5257C2.40066 10.4231 2.35138 10.3082 2.3266 10.1873C2.30182 10.0665 2.30203 9.94214 2.32722 9.82137C2.35241 9.70061 2.40209 9.5858 2.47341 9.48352C2.54474 9.38124 2.63631 9.29349 2.7429 9.22528L14.4341 1.7286C14.5808 1.63452 14.7513 1.58053 14.9274 1.57237C15.1035 1.56422 15.2786 1.6022 15.4341 1.68227C15.5895 1.76234 15.7195 1.88151 15.8101 2.02705C15.9007 2.1726 15.9485 2.33908 15.9485 2.50874Z" fill="white" stroke="white" stroke-width="3"/>
</svg>
