<svg width="28" height="50" viewBox="0 0 28 50" fill="none" xmlns="http://www.w3.org/2000/svg">
<path d="M26.1875 47.5062C26.1875 47.6293 26.1633 47.7512 26.1162 47.865C26.069 47.9787 26 48.0821 25.9129 48.1691C25.8259 48.2562 25.7225 48.3252 25.6088 48.3724C25.495 48.4195 25.3731 48.4437 25.25 48.4437H2.82142C2.79762 48.4455 2.77381 48.4465 2.74978 48.4465C2.57264 48.4463 2.39917 48.396 2.24943 48.3013C2.0997 48.2067 1.97982 48.0716 1.90365 47.9116C1.82749 47.7517 1.79816 47.5735 1.81905 47.3976C1.83994 47.2217 1.9102 47.0553 2.02171 46.9176L22.5645 19.5056C23.3651 18.3118 23.9073 16.9639 24.1564 15.5483C24.4055 14.1327 24.3559 12.6806 24.011 11.2853C23.666 9.88995 23.0332 8.58211 22.1531 7.44567C21.2731 6.30922 20.1652 5.36926 18.9006 4.68607C17.636 4.00289 16.2425 3.59155 14.8096 3.47846C13.3767 3.36537 11.936 3.55301 10.5799 4.02935C9.22374 4.5057 7.98214 5.26022 6.9347 6.24454C5.88727 7.22885 5.05713 8.42123 4.49752 9.74518C4.44968 9.85873 4.37993 9.96173 4.29225 10.0483C4.20457 10.1349 4.10068 10.2033 3.98653 10.2497C3.87238 10.2961 3.75021 10.3195 3.62699 10.3186C3.50378 10.3177 3.38195 10.2926 3.26847 10.2446C3.15499 10.1966 3.05208 10.1267 2.96564 10.0389C2.8792 9.95107 2.81092 9.84709 2.7647 9.73287C2.71848 9.61865 2.69523 9.49644 2.69628 9.37323C2.69734 9.25002 2.72267 9.12822 2.77084 9.01481C3.43265 7.44909 4.41463 6.03909 5.65371 4.8754C6.89279 3.7117 8.36156 2.82004 9.96569 2.25767C11.5698 1.6953 13.2738 1.47467 14.9683 1.60995C16.6628 1.74522 18.3102 2.23341 19.8048 3.04316C21.2994 3.85291 22.6081 4.96631 23.6468 6.31186C24.6856 7.6574 25.4314 9.20533 25.8365 10.8562C26.2415 12.5071 26.2967 14.2245 25.9986 15.898C25.7005 17.5715 25.0557 19.1642 24.1056 20.5737C24.0971 20.5864 24.0882 20.5989 24.0791 20.6112L4.62616 46.5687H25.25C25.4986 46.5687 25.7371 46.6675 25.9129 46.8433C26.0887 47.0191 26.1875 47.2576 26.1875 47.5062Z" fill="white" stroke="white" stroke-width="3"/>
</svg>
