<svg width="28" height="50" viewBox="0 0 28 50" fill="none" xmlns="http://www.w3.org/2000/svg">
<path d="M26.1875 34.3849C26.1877 37.1659 25.3631 39.8845 23.8182 42.1969C22.2732 44.5093 20.0772 46.3116 17.5079 47.3759C14.9386 48.4402 12.1114 48.7187 9.38384 48.1761C6.65627 47.6335 4.15085 46.2943 2.18443 44.3278C2.09738 44.2407 2.02832 44.1374 1.98121 44.0237C1.93409 43.9099 1.90984 43.788 1.90983 43.6649C1.90983 43.5418 1.93407 43.4199 1.98118 43.3062C2.02828 43.1924 2.09733 43.0891 2.18438 43.002C2.27142 42.915 2.37476 42.8459 2.4885 42.7988C2.60223 42.7517 2.72413 42.7275 2.84723 42.7275C2.97034 42.7274 3.09224 42.7517 3.20598 42.7988C3.31972 42.8459 3.42306 42.9149 3.51011 43.002C4.92723 44.4189 6.67191 45.4645 8.58962 46.0461C10.5073 46.6277 12.5389 46.7274 14.5043 46.3363C16.4697 45.9453 18.3084 45.0756 19.8575 43.8042C21.4065 42.5329 22.6181 40.8991 23.3849 39.0477C24.1518 37.1963 24.4502 35.1843 24.2538 33.19C24.0574 31.1957 23.3721 29.2806 22.2588 27.6143C21.1455 25.9481 19.6384 24.5821 17.8711 23.6374C16.1038 22.6927 14.1308 22.1984 12.1268 22.1983C11.9554 22.1984 11.7872 22.1513 11.6405 22.0624C11.4939 21.9735 11.3745 21.846 11.2953 21.6939C11.2161 21.5418 11.1801 21.3709 11.1913 21.1998C11.2025 21.0287 11.2604 20.8639 11.3587 20.7234L23.4469 3.44629H2.75C2.50136 3.44629 2.2629 3.34752 2.08709 3.1717C1.91127 2.99589 1.8125 2.75743 1.8125 2.50879C1.8125 2.26015 1.91127 2.02169 2.08709 1.84588C2.2629 1.67006 2.50136 1.57129 2.75 1.57129H25.247C25.4185 1.57127 25.5867 1.6183 25.7333 1.70724C25.8799 1.79618 25.9993 1.92363 26.0785 2.07572C26.1578 2.22781 26.1937 2.39871 26.1825 2.56983C26.1714 2.74094 26.1135 2.90572 26.0152 3.04621L13.854 20.4277C17.2581 20.8501 20.3905 22.5019 22.6619 25.0724C24.9334 27.6428 26.1872 30.9547 26.1875 34.3849Z" fill="white" stroke="white" stroke-width="3"/>
</svg>
