<svg width="28" height="52" viewBox="0 0 28 52" fill="none" xmlns="http://www.w3.org/2000/svg">
<path d="M26.25 19.5089V49.5089C26.25 49.7575 26.1512 49.996 25.9754 50.1718C25.7996 50.3476 25.5611 50.4464 25.3125 50.4464C25.0638 50.4464 24.8254 50.3476 24.6496 50.1718C24.4737 49.996 24.375 49.7575 24.375 49.5089V35.4464H2.81248C2.66253 35.4464 2.51478 35.4104 2.3816 35.3415C2.24843 35.2727 2.13372 35.1728 2.0471 35.0504C1.96049 34.928 1.9045 34.7866 1.88383 34.6381C1.86316 34.4896 1.87841 34.3383 1.92831 34.1969L13.1776 2.32192C13.2604 2.08742 13.4329 1.8954 13.6572 1.78809C13.8815 1.68078 14.1393 1.66697 14.3738 1.74971C14.6083 1.83245 14.8003 2.00495 14.9076 2.22927C15.0149 2.45359 15.0287 2.71135 14.946 2.94585L4.13747 33.5714H24.375V19.5089C24.375 19.2602 24.4737 19.0218 24.6496 18.846C24.8254 18.6702 25.0638 18.5714 25.3125 18.5714C25.5611 18.5714 25.7996 18.6702 25.9754 18.846C26.1512 19.0218 26.25 19.2602 26.25 19.5089Z" fill="white" stroke="white" stroke-width="3"/>
</svg>
