<svg width="28" height="50" viewBox="0 0 28 50" fill="none" xmlns="http://www.w3.org/2000/svg">
<path d="M22.0512 24.4393C24.6765 27.0891 26.144 30.6717 26.1319 34.4017C26.1199 38.1318 24.6293 41.7048 21.9869 44.3376C19.3445 46.9703 15.766 48.4478 12.0359 48.4462C8.30586 48.4446 4.72864 46.9639 2.08855 44.3289C1.91235 44.1535 1.81307 43.9153 1.81253 43.6666C1.812 43.418 1.91025 43.1793 2.08569 43.0031C2.26112 42.8269 2.49936 42.7277 2.74799 42.7271C2.99663 42.7266 3.23529 42.8248 3.41149 43.0003C5.11573 44.7051 7.28727 45.8663 9.65148 46.3369C12.0157 46.8075 14.4664 46.5664 16.6935 45.6441C18.9207 44.7218 20.8243 43.1597 22.1637 41.1554C23.503 39.1512 24.2179 36.7947 24.2179 34.3841C24.2179 31.9735 23.503 29.6171 22.1637 27.6128C20.8243 25.6086 18.9207 24.0465 16.6935 23.1242C14.4664 22.2019 12.0157 21.9608 9.65148 22.4314C7.28727 22.902 5.11573 24.0631 3.41149 25.768C3.27107 25.9078 3.08998 25.9995 2.89421 26.03C2.69843 26.0604 2.49803 26.0281 2.32178 25.9376C2.14552 25.8471 2.00247 25.7031 1.91316 25.5262C1.82384 25.3493 1.79286 25.1487 1.82465 24.9532L5.49728 2.35841C5.53298 2.13872 5.64568 1.93889 5.81522 1.79468C5.98476 1.65047 6.20008 1.57128 6.42265 1.57129H25.25C25.4987 1.57129 25.7371 1.67006 25.9129 1.84588C26.0887 2.02169 26.1875 2.26015 26.1875 2.50879C26.1875 2.75743 26.0887 2.99589 25.9129 3.1717C25.7371 3.34752 25.4987 3.44629 25.25 3.44629H7.22008L4.07616 22.7886C6.797 20.9313 10.08 20.0801 13.3605 20.3814C16.6411 20.6826 19.7141 22.1175 22.0512 24.4393Z" fill="white" stroke="white" stroke-width="3"/>
</svg>
